<svg xmlns="http://www.w3.org/2000/svg" width="36.64" height="36.658" viewBox="0 0 36.64 36.658">
  <g id="wallet" transform="translate(0.013 511.762)">
    <path id="Path_74324" data-name="Path 74324" d="M23.519-511.686a4.837,4.837,0,0,0-.752.3c-.215.107-4.04,2.321-8.5,4.914l-8.1,4.721H4.487c-1.834,0-2.135.043-2.815.43A3.557,3.557,0,0,0,.06-499.036c-.093.516-.1,20.587,0,21.167a3.339,3.339,0,0,0,2.693,2.693c.265.043,5.9.072,14.785.072,15.773,0,14.935.022,15.73-.437a3.587,3.587,0,0,0,1.576-1.9c.115-.315.129-.666.158-3.259l.029-2.908.244-.122a3,3,0,0,0,1.153-1.182l.2-.4v-6.232l-.193-.408a2.642,2.642,0,0,0-1.11-1.175l-.294-.136-.029-2.9c-.036-3.08-.043-3.137-.408-3.861a4.186,4.186,0,0,0-1.34-1.311,4.51,4.51,0,0,0-.852-.322l-.494-.129-2.421-4.226c-2.428-4.255-2.765-4.763-3.381-5.186A3.505,3.505,0,0,0,23.519-511.686Zm1.433,1.741c.287.136.774.609.7.68-.036.029-2.944,1.726-6.475,3.782l-6.411,3.732h-1.6a7.554,7.554,0,0,1-1.533-.065c.15-.15,13.9-8.109,14.169-8.209A1.581,1.581,0,0,1,24.952-509.945Zm1.991,2.844.4.695-.158.1c-.086.057-1.884,1.1-3.99,2.328l-3.825,2.228H17.76a11.257,11.257,0,0,1-1.554-.05c.064-.064,10.315-6.038,10.329-6.017S26.721-507.488,26.943-507.1Zm2.12,3.71c.48.831.867,1.54.867,1.576s-1.547.065-3.6.065c-1.977,0-3.574-.022-3.546-.043.072-.079,5.3-3.109,5.358-3.109A17.1,17.1,0,0,1,29.063-503.391Zm3.094,3.374a1.9,1.9,0,0,1,1,.874c.122.272.136.523.136,2.994v2.708H30.632c-1.511,0-2.872.036-3.13.079a5.049,5.049,0,0,0-3.925,3.41,5.028,5.028,0,0,0,3.381,6.318c.559.172.645.172,3.46.208l2.88.029v2.7c0,2.693,0,2.708-.165,3.023a1.719,1.719,0,0,1-1.139.845c-.272.057-4.577.079-14.742.064-13.853-.021-14.369-.029-14.613-.158a1.927,1.927,0,0,1-.809-.8L1.671-478v-10.422c0-10.093.007-10.43.136-10.695a1.836,1.836,0,0,1,.867-.845c.272-.129.9-.136,14.749-.136C28.2-500.1,31.957-500.081,32.158-500.017Zm2.278,8.316a1,1,0,0,1,.394.286c.143.2.15.272.15,2.944a12.592,12.592,0,0,1-.107,2.937c-.208.4-.208.4-3.789.4-3.653,0-3.753-.014-4.513-.494a3.324,3.324,0,0,1-.559-5.179,3.774,3.774,0,0,1,1.784-.917C28.447-491.815,34.156-491.8,34.435-491.7Z" transform="translate(0 0)" fill="#3f2571"/>
    <path id="Path_74325" data-name="Path 74325" d="M373.7-208.915a1.508,1.508,0,0,0-.759.759,1.793,1.793,0,0,0-.007,1.425,1.592,1.592,0,0,0,1.383.938,1.18,1.18,0,0,0,.817-.15,1.653,1.653,0,0,0,.415-2.708A1.744,1.744,0,0,0,373.7-208.915Z" transform="translate(-346.096 -281.009)" fill="#efb10b"/>
  </g>
</svg>
