<svg xmlns="http://www.w3.org/2000/svg" width="36.64" height="36.645" viewBox="0 0 36.64 36.645">
  <g id="info" transform="translate(-0.6 511.567)">
    <path id="Path_74326" data-name="Path 74326" d="M17.2-511.526a18.739,18.739,0,0,0-9.868,4.052A22.365,22.365,0,0,0,4.58-504.7a19.218,19.218,0,0,0-3.55,7.337,15.4,15.4,0,0,0-.43,4.124,15.4,15.4,0,0,0,.43,4.124,19.075,19.075,0,0,0,3.65,7.459A22.363,22.363,0,0,0,7.456-478.9a19.218,19.218,0,0,0,7.337,3.55,15.4,15.4,0,0,0,4.124.43,15.4,15.4,0,0,0,4.124-.43,19.931,19.931,0,0,0,5.938-2.532,18.363,18.363,0,0,0,6.4-7.286,18.2,18.2,0,0,0,1.728-5.558,24.468,24.468,0,0,0,0-5.02,18.2,18.2,0,0,0-1.728-5.558,17.376,17.376,0,0,0-3.572-4.963,17.034,17.034,0,0,0-4.827-3.428,18.115,18.115,0,0,0-5.486-1.721A27.629,27.629,0,0,0,17.2-511.526Zm4.009,1.764a16.748,16.748,0,0,1,9.5,4.733,16.733,16.733,0,0,1,4.748,9.531,14.963,14.963,0,0,1,.122,2.259,15.953,15.953,0,0,1-1.721,7.4,16.665,16.665,0,0,1-12.68,9.137,20.685,20.685,0,0,1-4.518,0,16.733,16.733,0,0,1-9.531-4.748,16.733,16.733,0,0,1-4.748-9.531,20.688,20.688,0,0,1,0-4.518,17.1,17.1,0,0,1,1.6-5.142,16.683,16.683,0,0,1,12.429-9.094A17.657,17.657,0,0,1,21.212-509.762Z" transform="translate(0 0)" fill="#3f2571"/>
    <path id="Path_74327" data-name="Path 74327" d="M250.486-383.662a2.5,2.5,0,0,0-1.513,1.434,2.123,2.123,0,0,0,.61,2.116,2.453,2.453,0,0,0,3.88-.868,2.154,2.154,0,0,0-2.116-2.761A2.922,2.922,0,0,0,250.486-383.662Z" transform="translate(-230.487 -118.656)" fill="#efb10b"/>
    <path id="Path_74328" data-name="Path 74328" d="M201.092-297.607a15.214,15.214,0,0,0-2.56.875,3.612,3.612,0,0,0-.294,1.026,2.288,2.288,0,0,0,.481-.122c1-.316,1.936-.172,2.18.337.251.538.129,1.291-.674,4.023a11.5,11.5,0,0,0-.732,3.428,2.1,2.1,0,0,0,.151,1.018A2.82,2.82,0,0,0,201-285.759a2.57,2.57,0,0,0,1.312.251,6.126,6.126,0,0,0,2.826-.545l.932-.344.136-.48a1.544,1.544,0,0,0,.1-.516.759.759,0,0,0-.351.079,3.8,3.8,0,0,1-1.987.007c-.746-.409-.7-1.1.3-4.547a10.022,10.022,0,0,0,.7-3.263,2.158,2.158,0,0,0-1.442-2.3,2.365,2.365,0,0,0-1.255-.237A6.794,6.794,0,0,0,201.092-297.607Z" transform="translate(-183.459 -198.565)" fill="#efb10b"/>
  </g>
</svg>
