<svg xmlns="http://www.w3.org/2000/svg" width="36.64" height="39.821" viewBox="0 0 36.64 39.821">
  <g id="insurance" transform="translate(0 0)">
    <path id="Path_74312" data-name="Path 74312" d="M65.672-480.8c-.265.115-.839.415-1.271.662a32.688,32.688,0,0,1-12.237,4.176c-1.978.265-2.79.742-3.382,2l-.283.592v6.224c0,6.922.009,7.019.618,9.421a20.312,20.312,0,0,0,8.308,11.725c.874.591,7.558,4.326,8.246,4.609a3.337,3.337,0,0,0,2.3,0c.715-.3,7.125-3.876,8.114-4.529A20.4,20.4,0,0,0,84.981-459.9c.141-.91.159-1.66.159-7.24v-6.224l-.283-.592c-.574-1.21-1.43-1.748-3.17-1.969a33.123,33.123,0,0,1-12.343-4.141,15.267,15.267,0,0,0-1.545-.8A3.506,3.506,0,0,0,65.672-480.8Zm2.145,3.1a35.188,35.188,0,0,0,13.129,4.52,3.8,3.8,0,0,1,1.263.283c.15.132.159.433.124,6.11-.035,6.533-.044,6.648-.636,8.7a17.552,17.552,0,0,1-7.054,9.747c-.9.609-7.619,4.335-7.814,4.335-.177,0-6.622-3.549-7.646-4.22a14.621,14.621,0,0,1-2.463-1.96,17.5,17.5,0,0,1-5.236-9.888,55.036,55.036,0,0,1-.177-6.754c-.035-5.624-.026-5.933.124-6.065a3.8,3.8,0,0,1,1.263-.283,35.99,35.99,0,0,0,10.153-2.958,37.938,37.938,0,0,0,3.664-1.96C66.688-478.265,67.032-478.159,67.818-477.7Z" transform="translate(-48.5 481.002)" fill="#3f2571"/>
    <path id="Path_74313" data-name="Path 74313" d="M193.53-324.8c-.115.062-1.616,1.607-3.337,3.443s-3.161,3.337-3.2,3.337-.6-.486-1.254-1.068c-1.836-1.642-2.181-1.916-2.534-2.013a1.423,1.423,0,0,0-1.7,1.015,1.274,1.274,0,0,0,.106.945,40.516,40.516,0,0,0,5.086,4.485,1.338,1.338,0,0,0,1.386-.371c.6-.556,7.222-7.646,7.346-7.867a1.918,1.918,0,0,0,.115-.645,1.281,1.281,0,0,0-1.369-1.36A1.98,1.98,0,0,0,193.53-324.8Z" transform="translate(-169.718 338.683)" fill="#efb10b"/>
  </g>
</svg>
