<svg xmlns="http://www.w3.org/2000/svg" width="36.64" height="36.62" viewBox="0 0 36.64 36.62">
  <g id="language" transform="translate(0 0)">
    <path id="Path_74314" data-name="Path 74314" d="M13.922-511.963a3.887,3.887,0,0,0-2.8,2.832,41.573,41.573,0,0,0-.107,5.185v4.742H7.142a31.018,31.018,0,0,0-4.334.107,3.885,3.885,0,0,0-2.839,2.832c-.157.679-.157,12.6,0,13.281a3.9,3.9,0,0,0,2.668,2.8l.3.086v2.031c0,2.189.021,2.332.365,2.51a.671.671,0,0,0,.744-.036c.122-.079,1.345-1.1,2.718-2.289l2.5-2.146,6.33-.007c7.023,0,6.809.007,7.731-.472a4.163,4.163,0,0,0,1.566-1.6c.422-.844.429-.873.429-6.065v-4.735h.88l.873.007,2.5,2.146c1.38,1.18,2.6,2.21,2.718,2.289a.671.671,0,0,0,.744.036c.343-.179.365-.322.365-2.51v-2.031l.3-.086a3.894,3.894,0,0,0,2.668-2.789c.157-.679.157-12.6,0-13.281a3.884,3.884,0,0,0-2.832-2.839,58.5,58.5,0,0,0-6.895-.022.777.777,0,0,0-.393.629.867.867,0,0,0,.336.615c.072.036,1.609.079,3.419.1l3.29.036.4.2a2.642,2.642,0,0,1,1.159,1.18l.157.336v12.8l-.157.336a2.425,2.425,0,0,1-1.881,1.38c-.515.057-.772.165-.88.351a8.552,8.552,0,0,0-.122,1.774l-.036,1.616-2.131-1.817c-1.173-1-2.2-1.831-2.289-1.852s-3.118-.043-6.737-.057l-6.58-.014-.415-.207a2.627,2.627,0,0,1-1.144-1.173l-.157-.336v-12.8l.2-.408a2.688,2.688,0,0,1,1.18-1.144c.329-.164.372-.164,3.626-.2,1.809-.021,3.347-.064,3.419-.1a.867.867,0,0,0,.336-.615.777.777,0,0,0-.393-.629A59.183,59.183,0,0,0,13.922-511.963Zm-2.9,14.919a4.14,4.14,0,0,0,.765,2.618c.136.179.157.258.1.329-.114.136-3.226,8.325-3.226,8.482a.761.761,0,0,0,.365.615.668.668,0,0,0,.7-.007c.207-.107.315-.315.694-1.345l.207-.551h3.934l.343.894c.286.744.379.915.551,1a.681.681,0,0,0,.708.007.759.759,0,0,0,.365-.608c0-.072-.615-1.766-1.366-3.755s-1.352-3.64-1.337-3.655a.847.847,0,0,1,.308.036c.157.036,2.4.072,5.028.072H23.9l-.021,4.842c-.021,4.8-.021,4.856-.179,5.185a2.641,2.641,0,0,1-1.159,1.18l-.4.2-6.58.014c-3.619.014-6.651.036-6.737.057s-1.116.858-2.289,1.86L4.4-477.748l-.036-1.631a8.552,8.552,0,0,0-.122-1.774c-.107-.193-.372-.293-.894-.35a2.4,2.4,0,0,1-1.831-1.323l-.193-.393-.021-6.251c-.021-6.873-.029-6.673.415-7.288a2.721,2.721,0,0,1,1.216-.9,27.183,27.183,0,0,1,4.205-.107l3.876-.007Zm2.282,8.7c-.393.007-1.023.007-1.409,0l-.7-.021.665-1.752c.365-.966.687-1.8.708-1.859a11.213,11.213,0,0,1,.744,1.752l.7,1.86Z" transform="translate(0.15 512.084)" fill="#3f2571"/>
    <path id="Path_74315" data-name="Path 74315" d="M324.561-511.771a.717.717,0,0,0,.35,1.33.757.757,0,0,0,.715-.708A.72.72,0,0,0,324.561-511.771Z" transform="translate(-301.013 511.878)" fill="#efb10b"/>
    <path id="Path_74316" data-name="Path 74316" d="M262.092-459.88l-.207.207v2.16h-4.377l-.215.215a.455.455,0,0,0-.179.508c.079.608.358.708,1.917.708h1.116l.043.594a8.507,8.507,0,0,0,1.259,3.655l.222.322-.393.322a6.623,6.623,0,0,1-2.918,1.373c-.772.15-.98.322-.98.78a.585.585,0,0,0,.2.5c.186.186.215.193.73.157a7.944,7.944,0,0,0,4.02-1.824l.272-.243.272.243a7.944,7.944,0,0,0,4.02,1.824c.515.036.543.029.737-.157a.6.6,0,0,0,.193-.5c0-.458-.207-.629-.98-.78a6.624,6.624,0,0,1-2.918-1.373l-.393-.322.222-.322a8.5,8.5,0,0,0,1.259-3.655l.043-.594h1.116c1.6,0,1.9-.122,1.9-.765a.512.512,0,0,0-.2-.493l-.2-.172h-4.349l-.021-1.116-.021-1.116-.2-.172A.72.72,0,0,0,262.092-459.88Zm1.48,4.327a7.771,7.771,0,0,1-.193,1.051,7.472,7.472,0,0,1-.78,1.781,8.605,8.605,0,0,1-.744-1.609,6.861,6.861,0,0,1-.257-1.523v-.229h2.024Z" transform="translate(-238.701 463.812)" fill="#efb10b"/>
  </g>
</svg>
