<svg id="logout_1_" data-name="logout (1)" xmlns="http://www.w3.org/2000/svg" width="36.641" height="27.78" viewBox="0 0 36.641 27.78">
  <path id="Path_74317" data-name="Path 74317" d="M3.974-449.81a5.725,5.725,0,0,0-1.949,1.032A5.2,5.2,0,0,0,.7-446.751l-.2.587v20.273l.2.587a4.759,4.759,0,0,0,2.9,2.951l.48.186,8.274.021c5.86.014,8.4,0,8.7-.057a5.688,5.688,0,0,0,1.1-.408,4.44,4.44,0,0,0,2.07-2.027c.451-.91.516-1.3.516-3.474,0-1.719-.014-1.877-.143-2.092a.891.891,0,0,0-1.547.007c-.122.2-.143.437-.179,2.192-.021,1.082-.072,2.049-.107,2.149a2.892,2.892,0,0,1-2.171,1.862c-.523.1-15.466.1-15.989,0a2.84,2.84,0,0,1-2.027-1.576l-.222-.466V-446.02l.222-.466a2.846,2.846,0,0,1,2.042-1.576c.265-.05,3.066-.072,8.238-.057l7.837.021.4.165a3.01,3.01,0,0,1,1.318,1.046c.451.652.487.867.516,2.944.029,2.035.057,2.192.451,2.421a1.176,1.176,0,0,0,.5.122c.258,0,.344-.043.58-.279l.279-.279v-1.963a9.306,9.306,0,0,0-.143-2.522,4.543,4.543,0,0,0-2.443-3,6.079,6.079,0,0,0-1.053-.4c-.258-.057-2.944-.079-8.561-.072C5.672-449.917,4.3-449.9,3.974-449.81Z" transform="translate(-0.5 449.919)" fill="#3f2571"/>
  <path id="Path_74318" data-name="Path 74318" d="M229.246-355.786a.911.911,0,0,0-.394.9c.036.265.222.473,2.5,2.751l2.457,2.457h-8.7c-8.5,0-8.711.007-8.933.143a.874.874,0,0,0-.473.788.874.874,0,0,0,.473.788c.222.136.43.143,8.933.143h8.7l-2.493,2.493-2.486,2.493v.308a.931.931,0,0,0,.43.824,1.055,1.055,0,0,0,.917.014c.107-.057,1.648-1.562,3.424-3.353,2.557-2.565,3.245-3.3,3.288-3.482.115-.537.136-.509-3.281-3.94-1.784-1.784-3.324-3.3-3.431-3.353A1.062,1.062,0,0,0,229.246-355.786Z" transform="translate(-200.284 362.643)" fill="#efb10b"/>
</svg>
