<svg xmlns="http://www.w3.org/2000/svg" width="36.64" height="35.898" viewBox="0 0 36.64 35.898">
  <g id="user_1_" data-name="user (1)" transform="translate(-0.215 506.813)">
    <path id="Path_74329" data-name="Path 74329" d="M13.837-506.747a7.611,7.611,0,0,0-7.012,6.26,11.077,11.077,0,0,0-.079,3.309A11.254,11.254,0,0,0,8.8-492.165a6.425,6.425,0,0,1,.423.616,1.449,1.449,0,0,1-.337.158,17.714,17.714,0,0,0-2.478,1.275,13.878,13.878,0,0,0-6.031,9.862,21.525,21.525,0,0,0-.122,3.868c.072.666.079.688.358.931a28.955,28.955,0,0,0,5.35,2.815,22.891,22.891,0,0,0,8.774,1.726,22.763,22.763,0,0,0,7.52-1.253,31.236,31.236,0,0,0,3.108-1.261c.272-.143.279-.143.824-.007a11.771,11.771,0,0,0,3.309.129,9.025,9.025,0,0,0,3.946-1.683,8.64,8.64,0,0,0,3.144-9,8.715,8.715,0,0,0-6.79-6.4,10.386,10.386,0,0,0-3.194-.007,10.767,10.767,0,0,0-2.22.738l-.344.179L23.284-490a13.535,13.535,0,0,0-2.471-1.325l-.551-.222.408-.551a10.545,10.545,0,0,0,1.748-9.433A7.428,7.428,0,0,0,20.39-504.7a7.839,7.839,0,0,0-4.784-2.056A6.367,6.367,0,0,0,13.837-506.747Zm2.478,1.826c3.7.759,5.615,4.34,4.548,8.516-.695,2.729-2.929,5.393-5.078,6.045a3.691,3.691,0,0,1-2.829-.315A9.345,9.345,0,0,1,8.8-495.918a7.416,7.416,0,0,1-.4-2.743,6.477,6.477,0,0,1,.165-1.755,7.429,7.429,0,0,1,1.261-2.557A6.757,6.757,0,0,1,16.315-504.921ZM11.2-489.737a5.789,5.789,0,0,0,4.8,1.1,8.381,8.381,0,0,0,2.428-1.182,2.279,2.279,0,0,1,.509-.322,10.627,10.627,0,0,1,1.6.573,11.351,11.351,0,0,1,1.9,1.074,2.253,2.253,0,0,1-.53.68,8.631,8.631,0,0,0-2.041,8.337,10.143,10.143,0,0,0,1.382,2.772,9.783,9.783,0,0,0,1.927,1.891,2.036,2.036,0,0,1,.372.286,17.454,17.454,0,0,1-2.4.917,20.956,20.956,0,0,1-7.091,1,23.459,23.459,0,0,1-11.044-3.359c-1.218-.695-1.139-.516-1.074-2.342a13.568,13.568,0,0,1,1.4-5.866,11.726,11.726,0,0,1,6.525-5.744,6.392,6.392,0,0,1,.695-.215A3.328,3.328,0,0,1,11.2-489.737Zm17.827.967a6.966,6.966,0,0,1,4.24,2.163,5.969,5.969,0,0,1,1.21,1.8,6.064,6.064,0,0,1,.63,2.944,5.752,5.752,0,0,1-.158,1.64,7.105,7.105,0,0,1-4.011,4.734,5.575,5.575,0,0,1-2.772.5,5.241,5.241,0,0,1-1.783-.165,7.269,7.269,0,0,1-4.154-3.151,8.124,8.124,0,0,1-.91-2.521,8.725,8.725,0,0,1,.15-2.829,7.083,7.083,0,0,1,6.589-5.185C28.24-488.842,28.677-488.813,29.028-488.771Z" transform="translate(0)" fill="#3f2571"/>
    <path id="Path_74330" data-name="Path 74330" d="M338.572-211.444a.868.868,0,0,0-.58,1.053,8.514,8.514,0,0,0,1.3,1.454l1.246,1.253-1.253,1.253c-1.3,1.3-1.4,1.454-1.3,1.905a.868.868,0,0,0,.773.6A1.222,1.222,0,0,0,339.2-204c.086-.043.695-.616,1.354-1.268l1.2-1.2,1.275,1.275c1.253,1.239,1.282,1.268,1.583,1.268a.832.832,0,0,0,.831-.473c.244-.509.158-.645-1.225-2.034l-1.246-1.253,1.182-1.182a13.841,13.841,0,0,0,1.3-1.418.836.836,0,0,0-1-1.153,7.515,7.515,0,0,0-1.461,1.3l-1.239,1.239-1.275-1.275a12.151,12.151,0,0,0-1.389-1.268,1.037,1.037,0,0,1-.215-.029A.813.813,0,0,0,338.572-211.444Z" transform="translate(-313.548 -274.182)" fill="#efb10b"/>
  </g>
</svg>
